<svg class="svg-icon" style="width: 1em; height: 1em;vertical-align: middle;fill: currentColor;overflow: hidden;" viewBox="0 0 1024 1024" version="1.1" xmlns="http://www.w3.org/2000/svg"><path d="M735.4 448.9H295.2c-19.8 0-35.9-16.1-35.9-35.9 0-9.6 3.8-18.7 10.6-25.4 6.7-6.8 15.7-10.5 25.4-10.5h440.3c19.8 0 35.9 16.1 35.9 35.9-0.1 19.8-16.2 35.9-36.1 35.9z m-440.2-53.2c-4.6 0-8.9 1.8-12.2 5-3.3 3.3-5.1 7.6-5.1 12.2 0 9.5 7.7 17.2 17.3 17.2h440.3c9.5 0 17.3-7.7 17.3-17.2s-7.7-17.3-17.3-17.3H295.2z" fill="rgba(255,217,127,255)" /><path d="M632.2 919.2H398.4c-15.1 0-27.9-9.5-29.1-21.7l-48.5-450c-0.5-4.4 0.9-8.8 3.9-12.1 3-3.3 7.2-5.2 11.6-5.2h358c4.4 0 8.7 1.9 11.6 5.2 3 3.3 4.4 7.7 3.9 12.1l-5.5 50.4-43 399.6c-1.2 12.2-14 21.7-29.1 21.7zM339.7 448.9L344 489l43.7 406.5c0.2 1.5 4 5 10.6 5h233.8c6.5 0 10.4-3.5 10.6-4.9l48.1-446.7H339.7z m354.6 0zM704.5 395.7H326.1c-4.6 0-9-2-12-5.5s-4.2-8-3.5-12.5c15.4-94.1 92.5-165.2 187.5-173 3.5-0.3 7.1-0.5 10.7-0.6 7.5-0.4 16.2 0 24.6 0.7 2 0.2 4 0.4 5.9 0.6C630.7 215.8 705 286.7 720 377.7c0.7 4.5-0.6 9-3.5 12.5-3 3.5-7.4 5.5-12 5.5z m-374.8-18.6h371.2c-14.9-81-81.8-143.8-163.8-153.2-1.8-0.2-3.6-0.4-5.3-0.5-5.7-0.5-11.5-0.8-17-0.7-1.7 0-3.4 0-5.1 0.1h-0.5c-3 0.1-6.3 0.3-9.5 0.5-85.3 7-154.7 70-170 153.8z" fill="rgba(255,217,127,255)" /><path d="M421.3 784.4c-2.6 0-4.7-2.1-4.7-4.7V483.1c0-2.6 2.1-4.7 4.7-4.7s4.7 2.1 4.7 4.7v296.7c0 2.6-2.1 4.6-4.7 4.6zM466.5 625.7c-2.6 0-4.7-2.1-4.7-4.7V480.4c0-2.6 2.1-4.7 4.7-4.7s4.7 2.1 4.7 4.7V621c0 2.6-2.1 4.7-4.7 4.7zM532.6 223.4h-0.8c-5.7-0.5-11.4-0.7-16.9-0.7-1.7 0-3.4 0-5.1 0.1h-0.5c-3 0.1-6.3 0.3-9.5 0.5-3 0.3-5.8-0.9-7.8-3.2-1.9-2.2-2.7-5.3-2.1-8.2l16.2-72.4c0-0.5 0.1-0.9 0.2-1.4l3.5-15.7c1.5-6.8 5.6-12.6 11.5-16.3 5.9-3.7 12.9-4.9 19.7-3.4l102 22.8c9.5 2.1 15.4 11.5 13.3 21l-3.6 16.1c-2.2 9.4-11.6 15.4-21 13.3l-77.2-17.3-12.9 57.6c-0.9 4.2-4.7 7.2-9 7.2zM515.3 204c3.3 0 6.6 0.1 9.9 0.3l11.3-50.5c1.1-4.7 3.9-8.6 7.9-11.2 4.1-2.6 8.9-3.4 13.5-2.3l76.8 17.2 3.1-13.9-101-22.6c-2-0.4-3.9-0.1-5.6 1-1.7 1.1-2.8 2.7-3.3 4.6l-3.2 14.3c0 0.5-0.1 0.9-0.2 1.4L510.7 204h4.6z m38.6-45.7z" fill="rgba(255,217,127,255)" /></svg>