<svg class="svg-icon" style="horizontal-align:middle; vertical-align: middle;fill: currentColor;overflow: hidden;" viewBox="0 0 1024 1024" version="1.1" xmlns="http://www.w3.org/2000/svg"><path d="M673.6 821H366.4c-6.9 0-12.8-4.7-14.5-11.3l-80.6-316.9c-1.1-4.5-0.1-9.2 2.7-12.9 2.8-3.7 7.2-5.8 11.8-5.8h468.4c4.6 0 9 2.1 11.8 5.8 2.8 3.7 3.8 8.4 2.7 12.9l-80.6 316.9c-1.6 6.7-7.6 11.3-14.5 11.3z m-295.5-30H662l73-286.9H305.1l73 286.9z" fill="rgba(255,217,127,255)" /><path d="M284.9 506.5c-6.2 0-12-3.9-14.2-10.1-4.3-12.2-6.4-25-6.4-38.1 0-25.4 8.1-49.5 23.4-69.7 12.7-16.7 29.9-29.7 49.2-37.5 3.3-31.9 17.6-61.4 40.8-84 25.8-25.1 59.8-38.9 95.8-38.9 69.3 0 126.8 51.6 136.1 118.4 16.1-8.2 34-12.5 52.3-12.5 63.6 0 115.3 51.7 115.3 115.3 0 16.6-3.4 32.5-10.2 47.5-3.4 7.5-12.3 10.9-19.9 7.5-7.5-3.4-10.9-12.3-7.5-19.9 5-11.1 7.5-22.9 7.5-35.1 0-47.1-38.3-85.3-85.3-85.3-20.8 0-40.8 7.6-56.4 21.3-4.6 4-11.1 4.9-16.6 2.2-5.5-2.7-8.7-8.4-8.3-14.5 0.2-2.6 0.3-5.1 0.3-7.5 0-59.2-48.2-107.4-107.4-107.4-58.5 0-105.6 45.8-107.3 104.2-0.2 6.5-4.5 12.1-10.7 14-36 10.6-61.2 44.3-61.2 81.8 0 9.7 1.6 19.1 4.8 28.2 2.7 7.8-1.4 16.4-9.2 19.1-1.6 0.7-3.2 1-4.9 1z" fill="rgba(255,217,127,255)" /><path d="M762.3 464.5c-8.3 0-15-6.7-15-15 0-47.1-38.3-85.3-85.3-85.3-34 0-64.8 20.2-78.3 51.4-3.3 7.6-12.1 11.1-19.7 7.8s-11.1-12.1-7.8-19.7c18.3-42.2 59.9-69.4 105.8-69.4 63.6 0 115.3 51.7 115.3 115.3 0 8.2-6.7 14.9-15 14.9zM279.3 473.3c-8.3 0-15-6.7-15-15 0-63.6 51.7-115.3 115.3-115.3 20.9 0 41.4 5.7 59.3 16.4 7.1 4.3 9.4 13.5 5.1 20.6s-13.5 9.4-20.6 5.1c-13.2-7.9-28.3-12.1-43.8-12.1-47.1 0-85.3 38.3-85.3 85.3 0 8.3-6.7 15-15 15z" fill="rgba(255,217,127,255)" /><path d="M717.6 374.6c-2.5 0-5-0.6-7.3-1.9-7.2-4-9.9-13.2-5.8-20.4 6-10.7 9.1-23 9.1-35.3 0-40.2-32.7-72.9-72.9-72.9-27.2 0-52 15-64.6 39.1-3.8 7.3-12.9 10.2-20.2 6.3-7.3-3.8-10.2-12.9-6.3-20.2 17.8-34 52.8-55.2 91.2-55.2 56.7 0 102.9 46.2 102.9 102.9 0 17.5-4.5 34.7-12.9 49.9a15.2 15.2 0 0 1-13.2 7.7z" fill="rgba(255,217,127,255)" /><path d="M671.7 248.8c-1.8 0-3.5-0.3-5.3-1-7.8-2.9-11.7-11.6-8.7-19.3 13.5-35.8 43.5-63.8 80.1-74.8 7.9-2.4 16.3 2.1 18.7 10 2.4 7.9-2.1 16.3-10 18.7-27.8 8.4-50.4 29.5-60.7 56.7-2.3 6-8.1 9.7-14.1 9.7zM520 821c-8.3 0-15-6.7-15-15V557.4c0-8.3 6.7-15 15-15s15 6.7 15 15V806c0 8.3-6.7 15-15 15zM601.3 821c-0.5 0-1 0-1.6-0.1-8.2-0.9-14.2-8.2-13.4-16.5l26-249.7c0.9-8.2 8.2-14.2 16.5-13.4 8.2 0.9 14.2 8.2 13.4 16.5l-26 249.7c-0.8 7.8-7.3 13.5-14.9 13.5zM442.1 821c-7.6 0-14.1-5.7-14.9-13.4l-26-248.6c-0.9-8.2 5.1-15.6 13.4-16.5 8.2-0.9 15.6 5.1 16.5 13.4L457 804.5c0.9 8.2-5.1 15.6-13.4 16.5h-1.5z" fill="rgba(255,217,127,255)" /><path d="M387.1 429.8m-20 0a20 20 0 1 0 40 0 20 20 0 1 0-40 0Z" fill="rgba(255,217,127,255)" /><path d="M481.1 318.8m-20 0a20 20 0 1 0 40 0 20 20 0 1 0-40 0Z" fill="rgba(255,217,127,255)" /><path d="M659.1 424.4m-20 0a20 20 0 1 0 40 0 20 20 0 1 0-40 0Z" fill="rgba(255,217,127,255)" /><path d="M507.1 413.4m-20 0a20 20 0 1 0 40 0 20 20 0 1 0-40 0Z" fill="rgba(255,217,127,255)" /></svg>