<svg xmlns="http://www.w3.org/2000/svg" xmlns:xlink="http://www.w3.org/1999/xlink" width="200" zoomAndPan="magnify" viewBox="0 0 150 52.499999" height="70" preserveAspectRatio="xMidYMid meet" version="1.0"><defs><clipPath id="aadcd7f19d"><path d="M 0.707031 0 L 55.546875 0 L 55.546875 52.003906 L 0.707031 52.003906 Z M 0.707031 0 " clip-rule="nonzero"/></clipPath></defs><g clip-path="url(#aadcd7f19d)"><path fill="#944800" d="M 3.371094 -0.0898438 C 6.742188 0.308594 9.753906 2.175781 10.996094 5.460938 C 11.722656 7.121094 12.003906 8.996094 13.195312 10.414062 C 15.214844 12.746094 18.734375 12.859375 21.574219 13.203125 C 23.121094 13.265625 24.664062 13.109375 26.1875 12.882812 C 28.699219 12.5625 35.003906 9.839844 35.039062 14.265625 C 34.652344 16.367188 32.054688 16.660156 30.308594 16.6875 C 28.71875 16.695312 27.210938 16.175781 25.722656 15.648438 C 23.058594 14.769531 16.300781 13.175781 14.175781 15.398438 C 14.136719 15.460938 14.09375 15.535156 14.058594 15.597656 C 15.777344 16.644531 17.921875 17.421875 19.90625 16.636719 C 24.128906 14.964844 26.738281 17.308594 24.996094 19.367188 C 23.253906 21.4375 19.242188 17.820312 16.460938 18.277344 C 15.226562 18.484375 14.324219 19.304688 13.699219 20.152344 C 13.789062 20.386719 13.886719 20.625 13.988281 20.851562 C 14.480469 22.011719 14.980469 23.117188 14.515625 24.453125 C 14.246094 25.0625 13.824219 25.527344 13.351562 25.933594 C 13.902344 25.933594 17.921875 27.894531 13.859375 31.324219 C 11.128906 33.625 20.144531 34.046875 20.144531 34.046875 C 20.3125 34.054688 20.476562 34.054688 20.636719 34.058594 C 24.390625 34.054688 28.148438 34.1875 31.902344 33.96875 C 36.003906 33.691406 40.066406 33.003906 44.164062 32.640625 C 46.964844 32.484375 55.507812 31.808594 55.507812 35.90625 C 55.507812 36.019531 55.5 36.140625 55.484375 36.261719 C 54.320312 41.054688 47.855469 39.605469 44.265625 39.226562 C 40.457031 38.664062 36.660156 37.960938 32.851562 37.347656 C 28.316406 36.753906 23.601562 36.449219 19.113281 37.402344 C 16.132812 38.1875 16.351562 40.183594 14.988281 42.386719 C 14.507812 43.089844 13.824219 43.640625 13.0625 44.019531 C 14.078125 45.257812 12.816406 46.691406 11.449219 46.671875 C 9.429688 46.640625 7.109375 50.496094 7.109375 50.496094 C 6.179688 52.457031 3.980469 53.121094 1.960938 53.105469 C 1.601562 53.085938 0.46875 53.136719 -0.195312 52.992188 C -0.21875 52.984375 -0.238281 52.980469 -0.265625 52.980469 C -0.265625 52.980469 -0.265625 52.980469 -0.273438 52.980469 C -0.28125 52.972656 -0.292969 52.964844 -0.308594 52.964844 C -0.367188 52.949219 -0.414062 52.929688 -0.464844 52.914062 C -0.535156 52.898438 -0.605469 52.878906 -0.675781 52.863281 C -0.746094 52.851562 -0.816406 52.84375 -0.894531 52.835938 C -0.902344 52.820312 -0.902344 52.808594 -0.902344 52.785156 C -0.84375 50.625 -0.789062 48.460938 -0.730469 46.300781 C -0.675781 44.074219 -0.621094 41.851562 -0.5625 39.628906 C -0.507812 37.339844 -0.441406 35.042969 -0.386719 32.753906 C -0.332031 30.503906 -0.265625 28.25 -0.210938 26 C -0.152344 23.703125 -0.0898438 21.40625 -0.0351562 19.105469 C 0.0234375 16.851562 0.0859375 14.601562 0.140625 12.339844 C 0.199219 10.117188 0.253906 7.890625 0.3125 5.675781 C 0.359375 3.886719 0.402344 2.097656 0.453125 0.316406 C 0.460938 0.128906 0.613281 -0.0273438 0.796875 -0.0273438 C 1.371094 -0.355469 2.976562 -0.0976562 3.371094 -0.0898438 Z M 3.371094 -0.0898438 " fill-opacity="1" fill-rule="nonzero"/><path fill="#7e3d00" d="M 0.804688 -0.0273438 C 0.621094 -0.0273438 0.460938 0.121094 0.460938 0.316406 C 0.410156 2.105469 0.367188 3.894531 0.320312 5.675781 C 0.261719 7.898438 0.207031 10.125 0.148438 12.339844 C 0.09375 14.59375 0.0351562 16.851562 -0.0273438 19.105469 C -0.0820312 21.398438 -0.148438 23.695312 -0.203125 25.996094 C -0.257812 28.25 -0.324219 30.503906 -0.378906 32.753906 C -0.4375 35.042969 -0.5 37.339844 -0.554688 39.628906 C -0.621094 41.851562 -0.675781 44.066406 -0.730469 46.292969 C -0.789062 48.460938 -0.84375 50.617188 -0.902344 52.785156 C -0.902344 52.808594 -0.902344 52.820312 -0.894531 52.84375 C -0.824219 52.84375 -0.753906 52.855469 -0.675781 52.871094 C -0.605469 52.886719 -0.535156 52.898438 -0.464844 52.921875 C -0.414062 52.929688 -0.367188 52.949219 -0.308594 52.964844 C -0.292969 52.964844 -0.28125 52.972656 -0.265625 52.972656 C -0.265625 52.972656 -0.265625 52.972656 -0.257812 52.972656 C -0.238281 52.980469 -0.21875 52.980469 -0.1875 52.984375 C 0.472656 53.128906 1.609375 53.078125 1.96875 53.101562 C 3.992188 53.113281 6.1875 52.449219 7.132812 50.484375 C 7.941406 48.886719 7.835938 46.75 9.191406 45.464844 C 10.136719 44.757812 11.371094 44.703125 12.433594 44.28125 C 13.449219 43.917969 14.394531 43.277344 15.015625 42.371094 C 16.378906 40.167969 16.160156 38.171875 19.144531 37.390625 C 23.628906 36.433594 28.347656 36.746094 32.882812 37.332031 C 36.683594 37.945312 40.476562 38.65625 44.292969 39.214844 C 47.882812 39.589844 54.355469 41.046875 55.515625 36.25 C 55.527344 36.128906 55.535156 36.007812 55.535156 35.890625 C 55.535156 31.800781 46.992188 32.476562 44.195312 32.628906 C 40.097656 32.992188 36.035156 33.667969 31.929688 33.953125 C 28.183594 34.175781 24.425781 34.039062 20.667969 34.046875 C 17.507812 33.9375 13.402344 34.152344 11.40625 31.203125 C 10.871094 29.839844 10.875 28.914062 11.164062 28.207031 C 11.703125 26.667969 13.113281 26.277344 13.5625 23.480469 C 13.5625 23.480469 13.65625 24.785156 13.414062 25.890625 C 13.867188 25.492188 14.285156 25.035156 14.542969 24.4375 C 15.007812 23.105469 14.507812 22 14.015625 20.835938 C 13.367188 19.320312 12.71875 17.707031 14.199219 15.375 C 16.320312 13.152344 23.078125 14.757812 25.742188 15.625 C 27.226562 16.152344 28.734375 16.675781 30.328125 16.667969 C 32.078125 16.632812 34.671875 16.339844 35.0625 14.242188 C 35.027344 9.816406 28.71875 12.539062 26.210938 12.859375 C 24.6875 13.089844 23.140625 13.238281 21.597656 13.179688 C 19.410156 12.925781 16.835938 12.796875 14.847656 11.699219 C 15.277344 12.519531 15.777344 12.859375 15.777344 12.859375 C 12.832031 11.519531 12.011719 8.207031 12.011719 8.207031 C 11.667969 7.292969 11.40625 6.339844 11.019531 5.445312 C 9.777344 2.152344 6.765625 0.285156 3.394531 -0.105469 C 2.976562 -0.0976562 1.371094 -0.355469 0.804688 -0.0273438 Z M 0.847656 52.378906 C 0.847656 52.4375 0.796875 52.488281 0.742188 52.488281 C 0.683594 52.488281 0.636719 52.4375 0.636719 52.378906 C 0.636719 52.324219 0.683594 52.273438 0.742188 52.273438 C 0.796875 52.273438 0.847656 52.324219 0.847656 52.378906 Z M 0.59375 51.566406 C 0.59375 51.808594 0.4375 52.007812 0.25 52.007812 C 0.0585938 52.007812 -0.175781 51.808594 -0.175781 51.566406 C -0.175781 51.324219 0.0585938 51.125 0.25 51.125 C 0.4375 51.125 0.59375 51.324219 0.59375 51.566406 Z M 0.65625 50.761719 C 0.65625 50.820312 0.609375 50.867188 0.550781 50.867188 C 0.496094 50.867188 0.445312 50.820312 0.445312 50.761719 C 0.445312 50.703125 0.496094 50.65625 0.550781 50.65625 C 0.613281 50.65625 0.65625 50.703125 0.65625 50.761719 Z M 15.914062 34.972656 C 15.914062 35.058594 15.84375 35.121094 15.765625 35.121094 C 15.679688 35.121094 15.617188 35.050781 15.617188 34.972656 C 15.617188 34.886719 15.6875 34.824219 15.765625 34.824219 C 15.84375 34.816406 15.914062 34.886719 15.914062 34.972656 Z M 15.09375 34.972656 C 15.09375 35.207031 14.902344 35.394531 14.679688 35.394531 C 14.453125 35.394531 14.261719 35.199219 14.261719 34.972656 C 14.261719 34.738281 14.453125 34.550781 14.679688 34.550781 C 14.902344 34.550781 15.09375 34.738281 15.09375 34.972656 Z M 9.636719 35.308594 C 10.339844 38.445312 7.109375 38.195312 6.898438 40.667969 C 6.695312 43.140625 6.941406 44.851562 3.832031 45.734375 C 3.832031 45.734375 6.355469 44.753906 6.257812 41.574219 C 6.152344 38.394531 8.980469 38.136719 8.910156 36.253906 C 8.78125 32.949219 5.035156 31.292969 5.035156 31.292969 C 5.035156 31.292969 8.9375 32.164062 9.636719 35.308594 Z M 7.492188 16.566406 C 7.492188 16.71875 7.371094 16.832031 7.230469 16.832031 C 7.082031 16.832031 6.96875 16.710938 6.96875 16.566406 C 6.96875 16.417969 7.089844 16.304688 7.230469 16.304688 C 7.371094 16.296875 7.492188 16.417969 7.492188 16.566406 Z M 8.078125 15.660156 C 8.078125 15.746094 8.007812 15.8125 7.929688 15.8125 C 7.84375 15.8125 7.78125 15.742188 7.78125 15.660156 C 7.78125 15.578125 7.851562 15.511719 7.929688 15.511719 C 8.007812 15.511719 8.078125 15.582031 8.078125 15.660156 Z M 9.953125 11.023438 C 10.136719 15.042969 7.054688 13.496094 6.460938 15.960938 C 5.871094 18.429688 8.027344 18.101562 8.027344 20.066406 C 8.027344 22.035156 5.996094 22.539062 4.421875 22.789062 C 4.421875 22.789062 6.8125 22.292969 6.792969 20.109375 C 6.773438 17.929688 4.226562 18.269531 6.460938 14.921875 C 8.699219 11.570312 11.460938 9.730469 4.875 6.671875 C 4.875 6.667969 9.769531 7 9.953125 11.023438 Z M 9.953125 11.023438 " fill-opacity="1" fill-rule="nonzero"/></g><path fill="#b85900" d="M 29.941406 12.71875 C 29.941406 12.71875 32.199219 11.65625 33.542969 12.640625 C 34.707031 13.480469 34.445312 14.542969 33.996094 15.113281 C 33.855469 15.292969 33.65625 15.425781 33.429688 15.46875 C 33.121094 15.527344 33.128906 15.171875 33.269531 14.257812 C 33.496094 12.796875 31.34375 12.417969 29.941406 12.71875 Z M 52.636719 38.28125 C 52.636719 38.28125 54.667969 38.410156 54.378906 35.804688 C 54.152344 33.789062 51.105469 33.589844 49.75 33.605469 C 49.125 33.609375 48.820312 34.394531 49.277344 34.824219 C 50.492188 35.949219 54.527344 36.210938 52.636719 38.28125 Z M 6.960938 12.695312 C 6.960938 12.695312 8.335938 12.160156 8.226562 10.542969 C 8.113281 8.925781 6.960938 8.734375 6.960938 8.734375 C 8.046875 10.628906 6.960938 12.695312 6.960938 12.695312 Z M 6.960938 37.902344 C 6.960938 37.902344 7.84375 37.597656 8.070312 36.285156 C 8.296875 34.972656 7.484375 34.300781 7.484375 34.300781 C 8.324219 36.296875 6.960938 37.902344 6.960938 37.902344 Z M 6.960938 37.902344 " fill-opacity="1" fill-rule="nonzero"/><path fill="#7e3d00" d="M 22.851562 16.632812 C 22.851562 16.632812 24.953125 16.703125 25.089844 17.886719 C 25.222656 19.070312 24.382812 19.097656 24.382812 19.097656 C 24.382812 19.097656 25.023438 17.367188 22.851562 16.632812 Z M 22.851562 16.632812 " fill-opacity="1" fill-rule="nonzero"/></svg>