<svg class="svg-icon" style="width: 1em; height: 1em;vertical-align: middle;fill: currentColor;overflow: hidden;" viewBox="0 0 1024 1024" version="1.1" xmlns="http://www.w3.org/2000/svg"><path d="M809.9 735.5H616c38.8-17.6 69.1-46.6 90.2-85.9 6.4 1.2 12.6 1.9 18.5 1.9 45.4 0 75.7-31.2 77.1-32.6 48-48.2 26.6-95.5 18.3-105.5-22.9-28-60.1-22.4-79.2-17.1V474c0-10.9-9.5-19.7-21.1-19.7H293.5c-11.6 0-21.1 7.1-21.1 19.7v30.5c3.9 116 47.8 196 125.1 231H204.8c-12.7 0-14 12.6-12 19.7 5.5 19.2 46 38.3 83.3 39.2h462.4c42.6-1.5 79.3-27.7 82.3-44 1.3-6.1-1.6-14.9-10.9-14.9z m-6.8-208.1c0.2 0.3 24.1 34.9-17.1 76.3-0.3 0.3-29.1 29.9-70.1 25.4 13.1-31.2 21.2-67.8 24-109.4 9.7-3.5 45.3-14.3 63.2 7.7z m-508.8-51.2H719s-0.3 32.2-0.4 34.5h-424c-0.1-2.1-0.3-34.5-0.3-34.5z m1.6 52.8h421.5c-7.7 84.9-42.2 179.7-154.2 200.5-0.2 0-18.6 2.4-56.5 2.4-37.4 0-55.8-2.3-55.9-2.3-112.7-21-147.3-115.9-154.9-200.6z m442.4 247.3H276.5c-31.1-0.9-56-14.6-63.7-22.5h584.7c-10.1 8.9-32.4 21.5-59.2 22.5zM490.3 419.3c9.4 6.7 20.8-3.9 12-13.7-2.5-2.2-23.6-22.3-4.4-47.1 25.3-32.7 9-63.1-3.2-74.5-11.6-7.6-19.5 6.4-12.5 13.2 2.3 2.3 22.4 23 1.3 50.1-24.1 31.2-6.1 60.7 6.8 72zM540.4 353.2c-8.2 11.4 4.1 18.6 12 13.7 12.9-11.3 30.9-40.8 6.8-72-21-27.2-1-47.9 1.3-50.1 7-9-1.3-20-12.5-13.3-12.2 11.5-28.5 41.8-3.2 74.5 19.3 24.9-1.9 45-4.4 47.2z" fill="rgba(255,217,127,255)" /></svg>