<svg xmlns="http://www.w3.org/2000/svg" xmlns:xlink="http://www.w3.org/1999/xlink" width="200" zoomAndPan="magnify" viewBox="0 0 150 52.499999" height="70" preserveAspectRatio="xMidYMid meet" version="1.0"><defs><clipPath id="6d8a491d04"><path d="M 0.707031 0 L 56.589844 0 L 56.589844 52.003906 L 0.707031 52.003906 Z M 0.707031 0 " clip-rule="nonzero"/></clipPath></defs><g clip-path="url(#6d8a491d04)"><path fill="#7e3d00" d="M 4.414062 -0.910156 C 7.785156 -0.511719 10.796875 1.355469 12.035156 4.640625 C 12.761719 6.304688 13.046875 8.179688 14.238281 9.597656 C 16.253906 11.925781 19.773438 12.042969 22.617188 12.382812 C 24.160156 12.449219 25.703125 12.289062 27.226562 12.0625 C 29.738281 11.742188 36.042969 9.019531 36.078125 13.445312 C 35.691406 15.546875 33.097656 15.839844 31.347656 15.871094 C 29.761719 15.875 28.25 15.355469 26.761719 14.828125 C 24.097656 13.953125 17.339844 12.355469 15.21875 14.578125 C 15.175781 14.644531 15.132812 14.714844 15.097656 14.777344 C 16.820312 15.828125 18.960938 16.601562 20.945312 15.820312 C 25.167969 14.144531 27.777344 16.488281 26.035156 18.550781 C 24.292969 20.617188 20.28125 17.003906 17.503906 17.457031 C 16.269531 17.664062 15.367188 18.484375 14.738281 19.332031 C 14.828125 19.570312 14.929688 19.804688 15.027344 20.03125 C 15.519531 21.195312 16.023438 22.300781 15.554688 23.632812 C 15.289062 24.246094 14.863281 24.707031 14.390625 25.113281 C 14.941406 25.113281 18.960938 27.074219 14.898438 30.503906 C 12.171875 32.804688 21.183594 33.226562 21.183594 33.226562 C 21.351562 33.234375 21.515625 33.234375 21.679688 33.242188 C 25.429688 33.234375 29.1875 33.367188 32.941406 33.148438 C 37.046875 32.871094 41.109375 32.1875 45.207031 31.820312 C 48.007812 31.664062 56.546875 30.988281 56.546875 35.085938 C 56.546875 35.199219 56.539062 35.320312 56.527344 35.445312 C 55.363281 40.234375 48.894531 38.785156 45.304688 38.410156 C 41.496094 37.84375 37.703125 37.140625 33.894531 36.527344 C 29.359375 35.933594 24.640625 35.628906 20.15625 36.582031 C 17.171875 37.367188 17.390625 39.363281 16.027344 41.566406 C 15.550781 42.273438 14.863281 42.820312 14.101562 43.199219 C 15.117188 44.4375 13.855469 45.871094 12.488281 45.851562 C 10.472656 45.820312 8.152344 49.679688 8.152344 49.679688 C 7.21875 51.640625 5.019531 52.300781 3.003906 52.289062 C 2.640625 52.265625 1.507812 52.316406 0.84375 52.171875 C 0.824219 52.167969 0.800781 52.160156 0.773438 52.160156 C 0.773438 52.160156 0.773438 52.160156 0.765625 52.160156 C 0.757812 52.152344 0.746094 52.144531 0.730469 52.144531 C 0.675781 52.128906 0.625 52.109375 0.574219 52.09375 C 0.503906 52.082031 0.433594 52.058594 0.363281 52.046875 C 0.292969 52.03125 0.222656 52.023438 0.144531 52.015625 C 0.140625 52.003906 0.140625 51.988281 0.140625 51.964844 C 0.195312 49.808594 0.25 47.640625 0.308594 45.480469 C 0.363281 43.257812 0.421875 41.03125 0.476562 38.808594 C 0.535156 36.519531 0.597656 34.222656 0.652344 31.9375 C 0.710938 29.683594 0.773438 27.429688 0.828125 25.179688 C 0.886719 22.882812 0.949219 20.589844 1.007812 18.285156 C 1.0625 16.03125 1.125 13.78125 1.183594 11.519531 C 1.238281 9.296875 1.296875 7.074219 1.351562 4.855469 C 1.402344 3.066406 1.445312 1.277344 1.492188 -0.503906 C 1.5 -0.691406 1.65625 -0.847656 1.839844 -0.847656 C 2.410156 -1.175781 4.019531 -0.917969 4.414062 -0.910156 Z M 4.414062 -0.910156 " fill-opacity="1" fill-rule="nonzero"/><path fill="#9d4c00" d="M 1.84375 -0.847656 C 1.664062 -0.847656 1.5 -0.695312 1.5 -0.503906 C 1.449219 1.285156 1.410156 3.074219 1.359375 4.855469 C 1.300781 7.078125 1.246094 9.304688 1.191406 11.519531 C 1.132812 13.773438 1.078125 16.03125 1.011719 18.285156 C 0.957031 20.582031 0.894531 22.875 0.835938 25.179688 C 0.78125 27.429688 0.71875 29.683594 0.660156 31.9375 C 0.605469 34.222656 0.539062 36.519531 0.484375 38.808594 C 0.421875 41.03125 0.363281 43.25 0.308594 45.472656 C 0.25 47.640625 0.195312 49.800781 0.140625 51.964844 C 0.140625 51.988281 0.140625 52.003906 0.144531 52.023438 C 0.214844 52.023438 0.285156 52.039062 0.363281 52.050781 C 0.433594 52.066406 0.503906 52.082031 0.574219 52.101562 C 0.625 52.109375 0.675781 52.128906 0.730469 52.144531 C 0.746094 52.144531 0.757812 52.152344 0.773438 52.152344 C 0.773438 52.152344 0.773438 52.152344 0.78125 52.152344 C 0.800781 52.160156 0.824219 52.160156 0.851562 52.167969 C 1.515625 52.308594 2.648438 52.257812 3.007812 52.28125 C 5.035156 52.292969 7.226562 51.632812 8.171875 49.664062 C 8.984375 48.066406 8.878906 45.929688 10.230469 44.644531 C 11.175781 43.941406 12.410156 43.882812 13.476562 43.460938 C 14.492188 43.097656 15.4375 42.457031 16.058594 41.550781 C 17.417969 39.351562 17.199219 37.355469 20.183594 36.570312 C 24.667969 35.613281 29.386719 35.929688 33.921875 36.511719 C 37.722656 37.125 41.515625 37.839844 45.332031 38.394531 C 48.921875 38.773438 55.398438 40.226562 56.554688 35.429688 C 56.566406 35.308594 56.574219 35.1875 56.574219 35.074219 C 56.574219 30.980469 48.035156 31.660156 45.234375 31.808594 C 41.136719 32.171875 37.074219 32.847656 32.96875 33.132812 C 29.222656 33.355469 25.464844 33.21875 21.707031 33.226562 C 18.546875 33.121094 14.441406 33.332031 12.445312 30.382812 C 11.910156 29.019531 11.917969 28.09375 12.207031 27.386719 C 12.742188 25.847656 14.152344 25.457031 14.605469 22.664062 C 14.605469 22.664062 14.695312 23.96875 14.457031 25.070312 C 14.90625 24.671875 15.324219 24.214844 15.585938 23.617188 C 16.050781 22.285156 15.550781 21.179688 15.054688 20.019531 C 14.40625 18.5 13.757812 16.886719 15.238281 14.558594 C 17.363281 12.332031 24.117188 13.9375 26.785156 14.808594 C 28.265625 15.335938 29.773438 15.855469 31.367188 15.847656 C 33.117188 15.8125 35.714844 15.519531 36.101562 13.425781 C 36.066406 8.996094 29.761719 11.71875 27.25 12.042969 C 25.726562 12.269531 24.179688 12.417969 22.636719 12.363281 C 20.449219 12.105469 17.875 11.976562 15.886719 10.878906 C 16.316406 11.699219 16.820312 12.042969 16.820312 12.042969 C 13.871094 10.703125 13.050781 7.386719 13.050781 7.386719 C 12.707031 6.472656 12.445312 5.519531 12.058594 4.628906 C 10.816406 1.335938 7.804688 -0.53125 4.433594 -0.925781 C 4.019531 -0.917969 2.410156 -1.175781 1.84375 -0.847656 Z M 1.886719 51.558594 C 1.886719 51.617188 1.839844 51.667969 1.78125 51.667969 C 1.726562 51.667969 1.675781 51.617188 1.675781 51.558594 C 1.675781 51.503906 1.726562 51.453125 1.78125 51.453125 C 1.839844 51.453125 1.886719 51.503906 1.886719 51.558594 Z M 1.632812 50.746094 C 1.632812 50.988281 1.480469 51.191406 1.289062 51.191406 C 1.097656 51.191406 0.863281 50.988281 0.863281 50.746094 C 0.863281 50.503906 1.097656 50.304688 1.289062 50.304688 C 1.480469 50.304688 1.632812 50.503906 1.632812 50.746094 Z M 1.699219 49.941406 C 1.699219 50 1.648438 50.050781 1.589844 50.050781 C 1.535156 50.050781 1.484375 50 1.484375 49.941406 C 1.484375 49.886719 1.535156 49.835938 1.589844 49.835938 C 1.65625 49.835938 1.699219 49.886719 1.699219 49.941406 Z M 16.953125 34.152344 C 16.953125 34.238281 16.882812 34.304688 16.804688 34.304688 C 16.71875 34.304688 16.65625 34.230469 16.65625 34.152344 C 16.65625 34.066406 16.726562 34.003906 16.804688 34.003906 C 16.882812 33.996094 16.953125 34.066406 16.953125 34.152344 Z M 16.132812 34.152344 C 16.132812 34.386719 15.945312 34.574219 15.71875 34.574219 C 15.492188 34.574219 15.300781 34.382812 15.300781 34.152344 C 15.300781 33.917969 15.492188 33.734375 15.71875 33.734375 C 15.945312 33.734375 16.132812 33.917969 16.132812 34.152344 Z M 10.675781 34.488281 C 11.378906 37.625 8.152344 37.375 7.9375 39.847656 C 7.734375 42.320312 7.980469 44.03125 4.871094 44.917969 C 4.871094 44.917969 7.394531 43.933594 7.296875 40.753906 C 7.191406 37.574219 10.019531 37.316406 9.949219 35.4375 C 9.820312 32.128906 6.078125 30.476562 6.078125 30.476562 C 6.078125 30.476562 9.976562 31.34375 10.675781 34.488281 Z M 8.53125 15.746094 C 8.53125 15.898438 8.410156 16.011719 8.269531 16.011719 C 8.121094 16.011719 8.007812 15.890625 8.007812 15.746094 C 8.007812 15.597656 8.128906 15.484375 8.269531 15.484375 C 8.410156 15.476562 8.53125 15.597656 8.53125 15.746094 Z M 9.117188 14.84375 C 9.117188 14.929688 9.046875 14.992188 8.96875 14.992188 C 8.882812 14.992188 8.820312 14.921875 8.820312 14.84375 C 8.820312 14.757812 8.890625 14.691406 8.96875 14.691406 C 9.046875 14.691406 9.117188 14.765625 9.117188 14.84375 Z M 10.992188 10.203125 C 11.175781 14.222656 8.09375 12.675781 7.5 15.140625 C 6.910156 17.609375 9.066406 17.28125 9.066406 19.246094 C 9.066406 21.214844 7.035156 21.722656 5.464844 21.972656 C 5.464844 21.972656 7.855469 21.472656 7.832031 19.289062 C 7.8125 17.109375 5.265625 17.453125 7.5 14.101562 C 9.738281 10.75 12.503906 8.910156 5.914062 5.855469 C 5.914062 5.847656 10.808594 6.183594 10.992188 10.203125 Z M 10.992188 10.203125 " fill-opacity="1" fill-rule="nonzero"/></g><path fill="#b85900" d="M 30.980469 11.898438 C 30.980469 11.898438 33.238281 10.835938 34.585938 11.820312 C 35.75 12.660156 35.488281 13.722656 35.035156 14.292969 C 34.894531 14.472656 34.699219 14.609375 34.472656 14.648438 C 34.160156 14.707031 34.167969 14.351562 34.308594 13.4375 C 34.535156 11.976562 32.382812 11.597656 30.980469 11.898438 Z M 53.675781 37.460938 C 53.675781 37.460938 55.707031 37.589844 55.417969 34.988281 C 55.191406 32.96875 52.144531 32.769531 50.792969 32.785156 C 50.164062 32.792969 49.859375 33.574219 50.320312 34.003906 C 51.53125 35.128906 55.566406 35.394531 53.675781 37.460938 Z M 8.003906 11.878906 C 8.003906 11.878906 9.378906 11.34375 9.265625 9.722656 C 9.152344 8.105469 8.003906 7.914062 8.003906 7.914062 C 9.089844 9.808594 8.003906 11.878906 8.003906 11.878906 Z M 8.003906 37.082031 C 8.003906 37.082031 8.882812 36.777344 9.109375 35.464844 C 9.335938 34.152344 8.523438 33.484375 8.523438 33.484375 C 9.363281 35.480469 8.003906 37.082031 8.003906 37.082031 Z M 8.003906 37.082031 " fill-opacity="1" fill-rule="nonzero"/><path fill="#9d4c00" d="M 23.890625 15.8125 C 23.890625 15.8125 25.996094 15.882812 26.128906 17.066406 C 26.261719 18.25 25.421875 18.277344 25.421875 18.277344 C 25.421875 18.277344 26.066406 16.546875 23.890625 15.8125 Z M 23.890625 15.8125 " fill-opacity="1" fill-rule="nonzero"/></svg>